<svg width="178" height="21" viewBox="0 0 178 21" fill="none"
    xmlns="http://www.w3.org/2000/svg">
    <path d="M55.2344 16V5.504H62.6744V16H61.3464V6.624H56.5624V16H55.2344ZM68.6029 16.192C68.1229 16.192 67.6642 16.1013 67.2269 15.92C66.8002 15.7387 66.4215 15.4773 66.0909 15.136C65.7602 14.784 65.4935 14.3573 65.2909 13.856C65.0989 13.344 65.0029 12.768 65.0029 12.128C65.0029 11.4773 65.0989 10.9013 65.2909 10.4C65.4935 9.888 65.7602 9.456 66.0909 9.104C66.4215 8.752 66.8002 8.48533 67.2269 8.304C67.6642 8.12267 68.1229 8.032 68.6029 8.032C69.0829 8.032 69.5362 8.12267 69.9629 8.304C70.4002 8.48533 70.7842 8.752 71.1149 9.104C71.4455 9.456 71.7069 9.888 71.8989 10.4C72.1015 10.9013 72.2029 11.4773 72.2029 12.128C72.2029 12.768 72.1015 13.344 71.8989 13.856C71.7069 14.3573 71.4455 14.784 71.1149 15.136C70.7842 15.4773 70.4002 15.7387 69.9629 15.92C69.5362 16.1013 69.0829 16.192 68.6029 16.192ZM68.6029 15.104C68.9335 15.104 69.2375 15.0347 69.5149 14.896C69.7922 14.7467 70.0269 14.544 70.2189 14.288C70.4215 14.0213 70.5762 13.7067 70.6829 13.344C70.7895 12.9813 70.8429 12.576 70.8429 12.128C70.8429 11.68 70.7895 11.2747 70.6829 10.912C70.5762 10.5387 70.4215 10.2187 70.2189 9.952C70.0269 9.68533 69.7922 9.48267 69.5149 9.344C69.2375 9.19467 68.9335 9.12 68.6029 9.12C68.2722 9.12 67.9682 9.19467 67.6909 9.344C67.4135 9.48267 67.1735 9.68533 66.9709 9.952C66.7789 10.2187 66.6295 10.5387 66.5229 10.912C66.4162 11.2747 66.3629 11.68 66.3629 12.128C66.3629 12.576 66.4162 12.9813 66.5229 13.344C66.6295 13.7067 66.7789 14.0213 66.9709 14.288C67.1735 14.544 67.4135 14.7467 67.6909 14.896C67.9682 15.0347 68.2722 15.104 68.6029 15.104ZM74.6828 16V18.752H73.5468L73.4028 15.76V14.928H73.7868C73.8934 14.864 73.9948 14.7787 74.0908 14.672C74.1974 14.5547 74.2934 14.3787 74.3788 14.144C74.4641 13.9093 74.5494 13.5947 74.6348 13.2C74.7201 12.8053 74.8001 12.2933 74.8748 11.664L75.2908 8.224H80.1228V14.928H81.2588V15.76L81.1308 18.752H79.9948V16H74.6828ZM76.0268 11.92C75.9414 12.688 75.8241 13.312 75.6748 13.792C75.5361 14.272 75.3761 14.6507 75.1948 14.928H78.8108V9.296H76.3308L76.0268 11.92ZM83.2426 19.28V8.224H84.3306L84.4426 9.12H84.4906C84.8426 8.82133 85.2266 8.56533 85.6426 8.352C86.0693 8.13867 86.512 8.032 86.9706 8.032C87.472 8.032 87.9146 8.128 88.2986 8.32C88.6826 8.50133 89.0026 8.768 89.2586 9.12C89.5146 9.46133 89.7066 9.87733 89.8346 10.368C89.9733 10.848 90.0426 11.392 90.0426 12C90.0426 12.6613 89.952 13.2533 89.7706 13.776C89.5893 14.288 89.344 14.7253 89.0346 15.088C88.7253 15.4507 88.368 15.728 87.9626 15.92C87.5573 16.1013 87.1306 16.192 86.6826 16.192C86.32 16.192 85.9573 16.112 85.5946 15.952C85.2426 15.792 84.8853 15.5733 84.5226 15.296L84.5546 16.656V19.28H83.2426ZM86.4586 15.088C86.7786 15.088 87.072 15.0187 87.3386 14.88C87.616 14.7307 87.8506 14.528 88.0426 14.272C88.2453 14.0053 88.4 13.68 88.5066 13.296C88.624 12.912 88.6826 12.48 88.6826 12C88.6826 11.5733 88.6453 11.184 88.5706 10.832C88.496 10.48 88.3733 10.1813 88.2026 9.936C88.0426 9.68 87.8293 9.48267 87.5626 9.344C87.3066 9.20533 86.9973 9.136 86.6346 9.136C86.304 9.136 85.968 9.22667 85.6266 9.408C85.296 9.58933 84.9386 9.85067 84.5546 10.192V14.272C84.9066 14.5707 85.248 14.784 85.5786 14.912C85.9093 15.0293 86.2026 15.088 86.4586 15.088ZM95.3016 16.192C94.8216 16.192 94.363 16.1013 93.9256 15.92C93.499 15.7387 93.1203 15.4773 92.7896 15.136C92.459 14.784 92.1923 14.3573 91.9896 13.856C91.7976 13.344 91.7016 12.768 91.7016 12.128C91.7016 11.4773 91.7976 10.9013 91.9896 10.4C92.1923 9.888 92.459 9.456 92.7896 9.104C93.1203 8.752 93.499 8.48533 93.9256 8.304C94.363 8.12267 94.8216 8.032 95.3016 8.032C95.7816 8.032 96.235 8.12267 96.6616 8.304C97.099 8.48533 97.483 8.752 97.8136 9.104C98.1443 9.456 98.4056 9.888 98.5976 10.4C98.8003 10.9013 98.9016 11.4773 98.9016 12.128C98.9016 12.768 98.8003 13.344 98.5976 13.856C98.4056 14.3573 98.1443 14.784 97.8136 15.136C97.483 15.4773 97.099 15.7387 96.6616 15.92C96.235 16.1013 95.7816 16.192 95.3016 16.192ZM95.3016 15.104C95.6323 15.104 95.9363 15.0347 96.2136 14.896C96.491 14.7467 96.7256 14.544 96.9176 14.288C97.1203 14.0213 97.275 13.7067 97.3816 13.344C97.4883 12.9813 97.5416 12.576 97.5416 12.128C97.5416 11.68 97.4883 11.2747 97.3816 10.912C97.275 10.5387 97.1203 10.2187 96.9176 9.952C96.7256 9.68533 96.491 9.48267 96.2136 9.344C95.9363 9.19467 95.6323 9.12 95.3016 9.12C94.971 9.12 94.667 9.19467 94.3896 9.344C94.1123 9.48267 93.8723 9.68533 93.6696 9.952C93.4776 10.2187 93.3283 10.5387 93.2216 10.912C93.115 11.2747 93.0616 11.68 93.0616 12.128C93.0616 12.576 93.115 12.9813 93.2216 13.344C93.3283 13.7067 93.4776 14.0213 93.6696 14.288C93.8723 14.544 94.1123 14.7467 94.3896 14.896C94.667 15.0347 94.971 15.104 95.3016 15.104ZM104.31 16.192C103.147 16.192 102.246 15.7707 101.606 14.928C100.966 14.0747 100.646 12.8587 100.646 11.28C100.646 9.968 100.758 8.912 100.982 8.112C101.216 7.312 101.547 6.68267 101.974 6.224C102.4 5.75467 102.912 5.424 103.51 5.232C104.118 5.02933 104.79 4.86933 105.526 4.752C105.739 4.72 105.92 4.69333 106.07 4.672C106.219 4.64 106.352 4.608 106.47 4.576C106.598 4.544 106.71 4.50667 106.806 4.464C106.912 4.42133 107.024 4.37333 107.142 4.32L107.398 5.52C107.184 5.65867 106.944 5.76533 106.678 5.84C106.422 5.904 106.128 5.96267 105.798 6.016C105.168 6.112 104.624 6.21333 104.166 6.32C103.718 6.42667 103.339 6.608 103.03 6.864C102.731 7.10933 102.496 7.46133 102.326 7.92C102.155 8.37867 102.038 9.008 101.974 9.808C102.315 9.38133 102.715 9.06133 103.174 8.848C103.643 8.624 104.123 8.512 104.614 8.512C105.072 8.512 105.494 8.59733 105.878 8.768C106.262 8.928 106.587 9.168 106.854 9.488C107.131 9.79733 107.344 10.176 107.494 10.624C107.654 11.072 107.734 11.5787 107.734 12.144C107.734 12.7627 107.643 13.3227 107.462 13.824C107.28 14.3253 107.035 14.752 106.726 15.104C106.416 15.456 106.054 15.728 105.638 15.92C105.222 16.1013 104.779 16.192 104.31 16.192ZM104.31 15.104C104.608 15.104 104.88 15.0347 105.126 14.896C105.382 14.7467 105.6 14.544 105.782 14.288C105.974 14.0213 106.118 13.7067 106.214 13.344C106.32 12.9813 106.374 12.5813 106.374 12.144C106.374 11.344 106.192 10.7093 105.83 10.24C105.467 9.76 104.95 9.52 104.278 9.52C103.904 9.52 103.515 9.62133 103.11 9.824C102.704 10.0267 102.304 10.3947 101.91 10.928V11.536C101.91 12.6667 102.107 13.5467 102.502 14.176C102.907 14.7947 103.51 15.104 104.31 15.104ZM109.973 16V8.224H111.285V11.376H115.029V8.224H116.341V16H115.029V12.544H111.285V16H109.973ZM122.269 16.192C121.746 16.192 121.256 16.1013 120.797 15.92C120.349 15.728 119.954 15.4613 119.613 15.12C119.282 14.768 119.021 14.3413 118.829 13.84C118.637 13.3387 118.541 12.768 118.541 12.128C118.541 11.488 118.637 10.9173 118.829 10.416C119.032 9.904 119.293 9.472 119.613 9.12C119.944 8.768 120.317 8.50133 120.733 8.32C121.149 8.128 121.581 8.032 122.029 8.032C122.52 8.032 122.957 8.11733 123.341 8.288C123.736 8.45867 124.061 8.704 124.317 9.024C124.584 9.344 124.786 9.728 124.925 10.176C125.064 10.624 125.133 11.1253 125.133 11.68C125.133 11.8187 125.128 11.9573 125.117 12.096C125.117 12.224 125.106 12.336 125.085 12.432H119.837C119.89 13.264 120.146 13.9253 120.605 14.416C121.074 14.896 121.682 15.136 122.429 15.136C122.802 15.136 123.144 15.0827 123.453 14.976C123.773 14.8587 124.077 14.7093 124.365 14.528L124.829 15.392C124.488 15.6053 124.109 15.792 123.693 15.952C123.277 16.112 122.802 16.192 122.269 16.192ZM119.821 11.488H123.981C123.981 10.6987 123.81 10.1013 123.469 9.696C123.138 9.28 122.669 9.072 122.061 9.072C121.784 9.072 121.517 9.12533 121.261 9.232C121.016 9.33867 120.792 9.49867 120.589 9.712C120.386 9.91467 120.216 10.1653 120.077 10.464C119.949 10.7627 119.864 11.104 119.821 11.488ZM130.366 16.192C129.844 16.192 129.353 16.1013 128.894 15.92C128.446 15.728 128.052 15.4613 127.71 15.12C127.38 14.768 127.118 14.3413 126.926 13.84C126.734 13.3387 126.638 12.768 126.638 12.128C126.638 11.488 126.734 10.9173 126.926 10.416C127.129 9.904 127.39 9.472 127.71 9.12C128.041 8.768 128.414 8.50133 128.83 8.32C129.246 8.128 129.678 8.032 130.126 8.032C130.617 8.032 131.054 8.11733 131.438 8.288C131.833 8.45867 132.158 8.704 132.414 9.024C132.681 9.344 132.884 9.728 133.022 10.176C133.161 10.624 133.23 11.1253 133.23 11.68C133.23 11.8187 133.225 11.9573 133.214 12.096C133.214 12.224 133.204 12.336 133.182 12.432H127.934C127.988 13.264 128.244 13.9253 128.702 14.416C129.172 14.896 129.78 15.136 130.526 15.136C130.9 15.136 131.241 15.0827 131.55 14.976C131.87 14.8587 132.174 14.7093 132.462 14.528L132.926 15.392C132.585 15.6053 132.206 15.792 131.79 15.952C131.374 16.112 130.9 16.192 130.366 16.192ZM127.918 11.488H132.078C132.078 10.6987 131.908 10.1013 131.566 9.696C131.236 9.28 130.766 9.072 130.158 9.072C129.881 9.072 129.614 9.12533 129.358 9.232C129.113 9.33867 128.889 9.49867 128.686 9.712C128.484 9.91467 128.313 10.1653 128.174 10.464C128.046 10.7627 127.961 11.104 127.918 11.488Z" fill="#045857"/>
    <path d="M177.399 10.7071C177.789 10.3166 177.789 9.68342 177.399 9.29289L171.035 2.92893C170.644 2.53841 170.011 2.53841 169.62 2.92893C169.23 3.31946 169.23 3.95262 169.62 4.34315L175.277 10L169.62 15.6569C169.23 16.0474 169.23 16.6805 169.62 17.0711C170.011 17.4616 170.644 17.4616 171.035 17.0711L177.399 10.7071ZM159 11H176.691V9H159V11Z" fill="#BDBDBD"/>
</svg>
