 
<svg width="20" height="20" viewBox="0 0 20 20" fill="none" xmlns="http://www.w3.org/2000/svg">
    <path d="M16.7879 3.71352C16.3764 3.30188 15.8879 2.97534 15.3503 2.75256C14.8126 2.52977 14.2363 2.4151 13.6543 2.4151C13.0723 2.4151 12.496 2.52977 11.9583 2.75256C11.4206 2.97534 10.9321 3.30188 10.5207 3.71352L9.66678 4.5674L8.81289 3.71352C7.9818 2.88243 6.85461 2.41553 5.67928 2.41553C4.50394 2.41553 3.37675 2.88243 2.54566 3.71352C1.71458 4.5446 1.24768 5.67179 1.24768 6.84713C1.24768 8.02246 1.71458 9.14965 2.54566 9.98074L3.39955 10.8346L9.66678 17.1018L15.934 10.8346L16.7879 9.98074C17.1995 9.5693 17.5261 9.08078 17.7488 8.54311C17.9716 8.00543 18.0863 7.42913 18.0863 6.84713C18.0863 6.26512 17.9716 5.68882 17.7488 5.15115C17.5261 4.61347 17.1995 4.12496 16.7879 3.71352V3.71352Z"
    stroke="#8DA5A8" stroke-linecap="round" stroke-linejoin="round" />
</svg>