<svg width="44" height="44" viewBox="0 0 44 44" fill="none"
    xmlns="http://www.w3.org/2000/svg">
    <circle cx="22" cy="22" r="22" fill="#F0F4FA"/>
    <path fill-rule="evenodd" clip-rule="evenodd" d="M17.5554 11C13.9349 11 11 13.9349 11 17.5554V26.4446C11 30.0651 13.9349 33 17.5554 33H26.4446C30.0651 33 33 30.0651 33 26.4446V17.5554C33 13.9349 30.0651 11 26.4446 11H17.5554ZM28.0497 14.3002C27.6162 14.3002 27.1903 14.4757 26.8842 14.7832C26.5765 15.0892 26.3997 15.5152 26.3997 15.9502C26.3997 16.3838 26.5767 16.8097 26.8842 17.1172C27.1902 17.4232 27.6162 17.6002 28.0497 17.6002C28.4847 17.6002 28.9092 17.4232 29.2167 17.1172C29.5242 16.8097 29.6997 16.3837 29.6997 15.9502C29.6997 15.5152 29.5242 15.0892 29.2167 14.7832C28.9107 14.4757 28.4847 14.3002 28.0497 14.3002ZM17.6003 22C17.6003 19.5738 19.5741 17.5999 22.0003 17.5999C24.4265 17.5999 26.4003 19.5738 26.4003 22C26.4003 24.4262 24.4265 26.3999 22.0003 26.3999C19.5741 26.3999 17.6003 24.4262 17.6003 22Z" fill="#5488C7"/>
</svg>
