<svg width="52" height="32" viewBox="0 0 52 32" fill="none"
    xmlns="http://www.w3.org/2000/svg">
    <path d="M52 15.6C52 24.16 45.04 31.2 36.4 31.2C27.84 31.2 20.8 24.16 20.8 15.6C20.8 7.04 27.7601 0 36.3201 0C45.0401 0 52 7.04 52 15.6Z" fill="#F9B50B"/>
    <path d="M31.12 15.68C31.12 14.56 30.96 13.44 30.8 12.4H21.2C21.28 11.84 21.44 11.36 21.6 10.72H30.16C30 10.16 29.76 9.6 29.52 9.04H22.24C22.48 8.48 22.8 8 23.12 7.36H28.64C28.32 6.8 27.92 6.24 27.44 5.68H24.4C24.88 5.12 25.36 4.64 26 4.08C23.28 1.52 19.6 0 15.52 0C7.04 0.24 0 7.04 0 15.6C0 24.16 6.96 31.2 15.6 31.2C19.68 31.2 23.28 29.6 26.08 27.12C26.64 26.64 27.12 26.08 27.68 25.44H24.48C24.08 24.96 23.68 24.4 23.36 23.84H28.8C29.12 23.36 29.44 22.8 29.68 22.16H22.4C22.16 21.68 21.92 21.12 21.76 20.48H30.32C30.8 19.04 31.12 17.44 31.12 15.68Z" fill="#C8191C"/>
    <path d="M21.12 19.6001L21.36 18.1601C21.28 18.1601 21.12 18.2401 20.96 18.2401C20.4 18.2401 20.32 17.9201 20.4 17.7601L20.88 14.8801H21.76L22 13.2801H21.2L21.36 12.3201H19.68C19.68 12.3201 18.72 17.7601 18.72 18.4001C18.72 19.3601 19.28 19.8401 20.08 19.8401C20.56 19.8401 20.96 19.6801 21.12 19.6001Z" fill="white"/>
    <path d="M21.6799 16.9599C21.6799 19.2799 23.2799 19.8399 24.5599 19.8399C25.7599 19.8399 26.3199 19.5999 26.3199 19.5999L26.6399 17.9999C26.6399 17.9999 25.7599 18.3999 24.8799 18.3999C23.0399 18.3999 23.3599 17.0399 23.3599 17.0399H26.7199C26.7199 17.0399 26.9599 15.9999 26.9599 15.5199C26.9599 14.4799 26.3999 13.1199 24.5599 13.1199C22.9599 13.0399 21.6799 14.8799 21.6799 16.9599ZM24.5599 14.5599C25.4399 14.5599 25.2799 15.5999 25.2799 15.6799H23.4399C23.5199 15.5999 23.6799 14.5599 24.5599 14.5599Z" fill="white"/>
    <path d="M35.04 19.6L35.36 17.76C35.36 17.76 34.56 18.16 33.92 18.16C32.8 18.16 32.24 17.28 32.24 16.24C32.24 14.24 33.2 13.2 34.4 13.2C35.2 13.2 35.92 13.68 35.92 13.68L36.16 11.92C36.16 11.92 35.2 11.52 34.24 11.52C32.32 11.52 30.48 13.2 30.48 16.32C30.48 18.4 31.44 19.76 33.44 19.76C34.16 19.84 35.04 19.6 35.04 19.6Z" fill="white"/>
    <path d="M12.0801 13.04C10.9601 13.04 10.0801 13.36 10.0801 13.36L9.84008 14.8C9.84008 14.8 10.5601 14.48 11.6801 14.48C12.2401 14.48 12.7201 14.56 12.7201 15.04C12.7201 15.36 12.6401 15.44 12.6401 15.44H11.9201C10.4801 15.44 8.96008 16 8.96008 17.92C8.96008 19.44 9.92008 19.76 10.5601 19.76C11.6801 19.76 12.2401 19.04 12.3201 19.04L12.2401 19.68H13.6001L14.2401 15.12C14.2401 13.12 12.6401 13.04 12.0801 13.04ZM12.4001 16.72C12.4001 16.96 12.2401 18.32 11.2801 18.32C10.8001 18.32 10.6401 17.92 10.6401 17.68C10.6401 17.28 10.8801 16.72 12.1601 16.72C12.3201 16.72 12.4001 16.72 12.4001 16.72Z" fill="white"/>
    <path d="M15.84 19.76C16.24 19.76 18.32 19.84 18.32 17.6C18.32 15.52 16.32 15.92 16.32 15.12C16.32 14.72 16.64 14.56 17.2 14.56C17.44 14.56 18.32 14.64 18.32 14.64L18.56 13.12C18.56 13.12 18 12.96 16.96 12.96C15.76 12.96 14.48 13.44 14.48 15.12C14.48 17.04 16.56 16.88 16.56 17.6C16.56 18.08 16 18.16 15.6 18.16C14.88 18.16 14.08 17.92 14.08 17.92L13.84 19.44C14 19.6 14.48 19.76 15.84 19.76Z" fill="white"/>
    <path d="M48.8 11.76L48.48 14C48.48 14 47.84 13.2 46.88 13.2C45.36 13.2 44.08 15.04 44.08 17.2C44.08 18.56 44.72 19.92 46.16 19.92C47.12 19.92 47.76 19.28 47.76 19.28L47.68 19.84H49.36L50.56 11.92L48.8 11.76ZM48 16.08C48 16.96 47.6 18.16 46.64 18.16C46.08 18.16 45.76 17.68 45.76 16.8C45.76 15.44 46.32 14.64 47.12 14.64C47.68 14.72 48 15.12 48 16.08Z" fill="white"/>
    <path d="M3.03994 19.68L3.99994 13.76L4.15994 19.68H5.27994L7.43994 13.76L6.55994 19.68H8.31994L9.67994 11.76H6.95994L5.27994 16.64L5.19994 11.76H2.79994L1.43994 19.68H3.03994Z" fill="white"/>
    <path d="M28.6399 19.68C29.1199 16.96 29.1999 14.72 30.3999 15.12C30.5599 14.08 30.7999 13.6 30.9599 13.2H30.6399C29.9199 13.2 29.2799 14.16 29.2799 14.16L29.4399 13.28H27.8399L26.7999 19.68H28.6399Z" fill="white"/>
    <path d="M38.88 13.04C37.76 13.04 36.88 13.36 36.88 13.36L36.64 14.8C36.64 14.8 37.36 14.48 38.48 14.48C39.04 14.48 39.52 14.56 39.52 15.04C39.52 15.36 39.44 15.44 39.44 15.44H38.72C37.28 15.44 35.76 16 35.76 17.92C35.76 19.44 36.72 19.76 37.36 19.76C38.48 19.76 39.04 19.04 39.12 19.04L39.04 19.68H40.56L41.2 15.12C41.2 13.12 39.44 13.04 38.88 13.04ZM39.28 16.72C39.28 16.96 39.12 18.32 38.16 18.32C37.68 18.32 37.52 17.92 37.52 17.68C37.52 17.28 37.76 16.72 39.04 16.72C39.2 16.72 39.2 16.72 39.28 16.72Z" fill="white"/>
    <path d="M42.48 19.68C42.96 16.96 43.04 14.72 44.24 15.12C44.4 14.08 44.64 13.6 44.8 13.2H44.48C43.76 13.2 43.12 14.16 43.12 14.16L43.28 13.28H41.68L40.64 19.68H42.48Z" fill="white"/>
</svg>
