<svg width="44" height="44" viewBox="0 0 44 44" fill="none"
    xmlns="http://www.w3.org/2000/svg">
    <circle cx="22" cy="22" r="21.5" fill="#F0F4FA" stroke="#F0F4FA"/>
    <path fill-rule="evenodd" clip-rule="evenodd" d="M21.2337 11C18.417 11 16.1337 13.3328 16.1337 16.2104C16.1337 19.0881 18.417 21.4211 21.2337 21.4211C24.0504 21.4211 26.3337 19.0881 26.3337 16.2104C26.3337 13.3328 24.0504 11 21.2337 11ZM21.2337 18.3645C20.0694 18.3645 19.1254 17.4 19.1254 16.2105C19.1254 15.021 20.0694 14.0566 21.2337 14.0566C22.398 14.0566 23.3419 15.021 23.3419 16.2105C23.3419 17.4 22.398 18.3645 21.2337 18.3645ZM26.902 24.9048C26.8316 24.9659 25.5013 26.1036 23.2813 26.593L26.6323 30.1871C27.2216 30.8238 27.2223 31.857 26.634 32.4947C26.0456 33.1323 25.0911 33.1334 24.5016 32.4965L21.2483 29.068L18.2934 32.4744C17.9975 32.8065 17.6029 32.9735 17.2079 32.9735C16.8311 32.9735 16.454 32.8218 16.1614 32.5165C15.5619 31.891 15.5445 30.858 16.1226 30.2093L19.3033 26.612C17.021 26.1341 15.6358 24.9667 15.5644 24.9048C14.9148 24.341 14.8105 23.3141 15.3314 22.611C15.8523 21.908 16.8012 21.795 17.451 22.3587C17.4647 22.3708 18.9136 23.5487 21.2482 23.5504C23.5828 23.5487 25.0017 22.3708 25.0155 22.3587C25.6652 21.795 26.6141 21.908 27.135 22.611C27.656 23.3141 27.5516 24.341 26.902 24.9048Z" fill="#5488C7"/>
</svg>
