<svg width="34" height="34" viewBox="0 0 34 34" fill="none"
    xmlns="http://www.w3.org/2000/svg">
    <path d="M26.1381 21.3783C26.7028 21.6203 26.9448 22.4271 26.9448 22.8304C27.0255 23.4758 26.8642 23.7985 26.6221 23.7985C26.3801 23.7985 26.0574 23.5565 25.7347 22.9918C25.4121 22.4271 25.2507 21.8624 25.4121 21.5397C25.6541 21.3783 25.8961 21.2977 26.1381 21.3783Z" fill="#F28A1A"/>
    <path d="M22.8305 23.8792C23.1532 23.8792 23.5566 24.0405 23.9599 24.3632C24.6053 24.9279 24.8473 25.5733 24.5246 26.0573C24.3633 26.2993 23.9599 26.4607 23.6372 26.4607C23.2339 26.4607 22.8305 26.2993 22.5885 26.0573C21.9431 25.4926 21.7818 24.6859 22.1851 24.2018C22.2658 24.0405 22.5078 23.8792 22.8305 23.8792Z" fill="#F28A1A"/>
    <path d="M15.1666 30.2524C6.77655 30.2524 0 23.4759 0 15.1666C0 6.85722 6.77655 0 15.1666 0C23.5566 0 30.3331 6.77655 30.3331 15.1666C30.3331 17.9901 29.5264 20.6523 28.2356 22.9112C28.1549 22.9919 28.0743 22.9919 28.0743 22.8305C27.5096 19.1195 25.2507 17.1027 22.0238 16.4573C21.7011 16.3767 21.7011 16.2153 22.1045 16.2153C23.1532 16.1346 24.5246 16.1346 25.3314 16.296C25.4121 15.8926 25.4121 15.4893 25.4121 15.1666C25.4121 9.68078 20.8944 5.16308 15.4086 5.16308C9.9228 5.16308 5.4051 9.68078 5.4051 15.1666C5.4051 20.6523 9.9228 25.17 15.4086 25.17H15.8926C15.7313 24.2826 15.6506 23.3952 15.7313 22.4271C15.7313 21.7818 15.8926 21.7011 16.1346 22.1851C17.5061 24.6053 19.5229 26.7028 23.3952 27.5902C26.5415 28.3163 29.6877 29.123 33.1567 33.3987C33.4794 33.8021 32.9953 34.2054 32.6726 33.8827C29.2037 30.8172 26.0574 29.7684 23.1532 29.7684C19.5229 29.8491 17.3447 30.2524 15.1666 30.2524Z" fill="#F28A1A"/>
</svg>
