<svg width="35" height="30" viewBox="0 0 35 30" fill="none"
    xmlns="http://www.w3.org/2000/svg">
    <path fill-rule="evenodd" clip-rule="evenodd" d="M4.71994 0H30.2801C32.8826 0 35 2.11736 35 4.71994V25.0981C35 27.7007 32.8826 29.818 30.2801 29.818H4.71994C2.11736 29.818 0 27.7007 0 25.0981V4.71994C0 2.11729 2.11736 0 4.71994 0ZM30.2801 27.7659C31.7511 27.7659 32.9479 26.5691 32.9479 25.0981V4.71994C32.9479 3.24892 31.7511 2.05215 30.2801 2.05215H4.71994C3.24892 2.05215 2.05215 3.24892 2.05215 4.71994V25.0981C2.05215 26.5691 3.24892 27.7659 4.71994 27.7659H30.2801ZM6.10415 4.94781C6.11099 4.98062 6.11584 5.01419 6.11919 5.047C6.12261 5.08043 6.12473 5.11454 6.12466 5.14817C6.12466 5.18174 6.12261 5.2153 6.11919 5.2488C6.11577 5.28223 6.11099 5.31586 6.10415 5.34867C6.098 5.38148 6.08979 5.41361 6.07954 5.44581C6.06997 5.47794 6.05835 5.50945 6.04604 5.54021C6.03306 5.57098 6.0187 5.60174 6.00298 5.6312C5.98726 5.6606 5.97017 5.69006 5.95171 5.7174C5.93318 5.74543 5.91268 5.77277 5.89148 5.79875C5.87022 5.8248 5.84767 5.85009 5.82374 5.8734C5.80043 5.89732 5.77514 5.91988 5.74916 5.94107C5.72318 5.9624 5.69577 5.98284 5.66774 6.00137C5.6404 6.01982 5.61094 6.03691 5.58154 6.05264C5.55215 6.06836 5.52132 6.08272 5.49056 6.0957C5.45979 6.10794 5.42828 6.11956 5.39615 6.12913C5.36471 6.1387 5.33183 6.14759 5.29901 6.15374C5.2662 6.16058 5.23264 6.16536 5.19914 6.16878C5.16564 6.1722 5.13208 6.17356 5.09858 6.17356C5.06509 6.17356 5.03084 6.17227 4.99734 6.16878C4.96453 6.16536 4.93097 6.16058 4.89815 6.15374C4.86534 6.14766 4.83246 6.13877 4.80033 6.12913C4.76889 6.11963 4.73669 6.10801 4.70593 6.0957C4.67517 6.08265 4.64434 6.06829 4.61494 6.05264C4.58555 6.03691 4.55677 6.01982 4.52874 6.00137C4.50071 5.98277 4.4733 5.96233 4.44801 5.94107C4.42128 5.91988 4.39667 5.89732 4.37274 5.8734C4.34875 5.85002 4.32619 5.8248 4.305 5.79875C4.28374 5.77284 4.26392 5.74543 4.24546 5.7174C4.227 5.68999 4.20923 5.6606 4.19351 5.6312C4.17778 5.60174 4.16343 5.57098 4.15112 5.54021C4.13813 5.50945 4.12651 5.47794 4.11694 5.44581C4.10737 5.41361 4.09917 5.38142 4.09233 5.34867C4.0855 5.31579 4.08071 5.28223 4.07729 5.2488C4.07388 5.21523 4.07251 5.18167 4.07251 5.14817C4.07251 5.11468 4.07388 5.08043 4.07729 5.047C4.08071 5.01419 4.0855 4.98056 4.09233 4.94781C4.09917 4.91493 4.10737 4.88212 4.11694 4.84999C4.12651 4.81854 4.13813 4.78628 4.15112 4.75552C4.16343 4.72482 4.17778 4.69399 4.19351 4.6646C4.20923 4.63514 4.227 4.60636 4.24546 4.57833C4.26398 4.55023 4.28381 4.52296 4.305 4.49698C4.32626 4.47101 4.34882 4.44564 4.37274 4.4224C4.39674 4.39841 4.42135 4.37585 4.44801 4.35466C4.4733 4.33333 4.50071 4.31351 4.52874 4.29443C4.55677 4.27591 4.58555 4.25882 4.61494 4.24316C4.64434 4.22744 4.67517 4.21309 4.70593 4.20078C4.73669 4.18779 4.76889 4.17617 4.80033 4.1666C4.83246 4.15703 4.86534 4.1489 4.89815 4.14199C4.93097 4.13516 4.96453 4.13037 4.99734 4.12695C5.0644 4.12012 5.13208 4.12012 5.19914 4.12695C5.23264 4.13037 5.2662 4.13516 5.29901 4.14199C5.33183 4.14883 5.36471 4.15696 5.39615 4.1666C5.42828 4.17617 5.45979 4.18779 5.49056 4.20078C5.522 4.21309 5.55215 4.22744 5.58154 4.24316C5.61094 4.25882 5.6404 4.27591 5.66774 4.29443C5.69577 4.31357 5.72318 4.3334 5.74916 4.35466C5.7752 4.37585 5.8005 4.39841 5.82374 4.4224C5.84773 4.44571 5.87029 4.47107 5.89148 4.49698C5.91274 4.52289 5.93325 4.5503 5.95171 4.57833C5.97017 4.60636 5.98726 4.63514 6.00298 4.6646C6.0187 4.69399 6.03306 4.72482 6.04604 4.75552C6.05835 4.78628 6.06997 4.81779 6.07954 4.84999C6.08979 4.88212 6.098 4.915 6.10415 4.94781ZM10.2236 5.04716C10.2201 5.01435 10.2154 4.98071 10.2085 4.94797C10.2024 4.91516 10.1942 4.88228 10.1839 4.85015C10.1743 4.8187 10.1627 4.78644 10.1504 4.75567C10.1374 4.72498 10.1231 4.69415 10.1073 4.66476C10.0916 4.63529 10.0745 4.60651 10.056 4.57849C10.0376 4.55046 10.017 4.52305 9.99579 4.49714C9.9746 4.47123 9.95204 4.44587 9.92804 4.42256C9.9048 4.39856 9.87944 4.37601 9.85346 4.35482C9.82749 4.33356 9.80007 4.31373 9.77205 4.29459C9.7447 4.27606 9.71524 4.25897 9.68585 4.24332C9.65645 4.2276 9.6263 4.21324 9.59486 4.20094C9.5641 4.18795 9.53258 4.17633 9.50045 4.16676C9.46901 4.15712 9.43613 4.14898 9.40332 4.14215C9.3705 4.13531 9.33694 4.13053 9.30344 4.12711C9.00041 4.09635 8.6919 4.20784 8.47711 4.42263C8.45319 4.44587 8.43063 4.47116 8.40937 4.49721C8.38818 4.52318 8.36835 4.55053 8.34983 4.57855C8.33137 4.60658 8.3136 4.63536 8.29788 4.66482C8.28215 4.69422 8.2678 4.72505 8.25549 4.75574C8.24251 4.7865 8.23088 4.81802 8.22131 4.85021C8.21174 4.88234 8.20354 4.91516 8.1967 4.94804C8.18987 4.98078 8.18508 5.01441 8.18167 5.04723C8.17825 5.08065 8.17688 5.1149 8.17688 5.1484C8.17688 5.1819 8.17825 5.21546 8.18167 5.24902C8.18508 5.28245 8.18987 5.31602 8.1967 5.3489C8.20354 5.38164 8.21174 5.41384 8.22131 5.44604C8.23088 5.47816 8.24251 5.50968 8.25549 5.54044C8.2678 5.5712 8.28215 5.60196 8.29788 5.63143C8.3136 5.66082 8.33137 5.69022 8.34983 5.71763C8.36829 5.74565 8.38811 5.77307 8.40937 5.79897C8.43056 5.82502 8.45312 5.85031 8.47711 5.87362C8.50104 5.89755 8.52572 5.92011 8.55238 5.9413C8.57767 5.96256 8.60508 5.983 8.63311 6.00159C8.66114 6.02005 8.68992 6.03714 8.71931 6.05286C8.74871 6.06852 8.77954 6.08287 8.8103 6.09593C8.84106 6.10823 8.87326 6.11985 8.9047 6.12936C8.93683 6.13899 8.96971 6.14788 9.00252 6.15397C9.03534 6.1608 9.0689 6.16559 9.10171 6.169C9.13521 6.17249 9.16946 6.17379 9.20296 6.17379C9.23645 6.17379 9.27001 6.17242 9.30351 6.169C9.33701 6.16559 9.37057 6.1608 9.40338 6.15397C9.4362 6.14781 9.46908 6.13893 9.50052 6.12936C9.53265 6.11979 9.56417 6.10816 9.59493 6.09593C9.62637 6.08294 9.65652 6.06858 9.68591 6.05286C9.71531 6.03714 9.74477 6.02005 9.77211 6.00159C9.80014 5.98307 9.82755 5.96263 9.85353 5.9413C9.87951 5.92011 9.90487 5.89755 9.92811 5.87362C9.95204 5.85031 9.9746 5.82509 9.99586 5.79897C10.017 5.773 10.0376 5.74572 10.0561 5.71763C10.0745 5.69028 10.0916 5.66082 10.1074 5.63143C10.1231 5.60196 10.1375 5.5712 10.1505 5.54044C10.1628 5.50968 10.1744 5.47816 10.184 5.44604C10.1942 5.41384 10.2024 5.38171 10.2086 5.3489C10.2154 5.31608 10.2202 5.28245 10.2236 5.24902C10.227 5.21553 10.2291 5.18196 10.2291 5.1484C10.2291 5.11483 10.227 5.08059 10.2236 5.04716ZM14.3129 4.94781C14.3197 4.98056 14.3245 5.01419 14.3279 5.047C14.3313 5.08043 14.3334 5.11461 14.3334 5.14817C14.3334 5.18174 14.3313 5.2153 14.3279 5.2488C14.3245 5.28223 14.3197 5.31586 14.3129 5.34867C14.3067 5.38148 14.2985 5.41361 14.2883 5.44581C14.2787 5.47794 14.2678 5.50945 14.2548 5.54021C14.2418 5.57098 14.2274 5.60174 14.2117 5.6312C14.196 5.6606 14.1789 5.69006 14.1604 5.7174C14.1419 5.7455 14.1214 5.77277 14.1002 5.79875C14.079 5.82486 14.0564 5.85009 14.0325 5.8734C14.0092 5.89732 13.9839 5.91988 13.9579 5.94107C13.9319 5.9624 13.9045 5.98284 13.8765 6.00137C13.8491 6.01982 13.8197 6.03691 13.7903 6.05264C13.7609 6.06836 13.7307 6.08271 13.6993 6.0957C13.6685 6.10794 13.637 6.11956 13.6049 6.12913C13.5734 6.1387 13.5406 6.14759 13.5078 6.15374C13.4749 6.16058 13.4414 6.16536 13.4079 6.16878C13.3744 6.1722 13.3408 6.17356 13.3073 6.17356C13.2738 6.17356 13.2396 6.17227 13.2061 6.16878C13.1733 6.16536 13.1397 6.16058 13.1069 6.15374C13.0741 6.14766 13.0412 6.13877 13.0091 6.12913C12.9776 6.11963 12.9454 6.10801 12.9147 6.0957C12.8839 6.08265 12.8531 6.06829 12.8237 6.05264C12.7943 6.03691 12.7655 6.01982 12.7375 6.00137C12.7095 5.98277 12.682 5.96233 12.6567 5.94107C12.6301 5.91988 12.6054 5.89732 12.5815 5.8734C12.5575 5.85009 12.5349 5.82479 12.5137 5.79875C12.4925 5.77284 12.4727 5.74543 12.4542 5.7174C12.4357 5.68999 12.418 5.6606 12.4022 5.6312C12.3865 5.60174 12.3722 5.57098 12.3599 5.54021C12.3469 5.50945 12.3353 5.47794 12.3257 5.44581C12.3161 5.41361 12.3079 5.38142 12.3011 5.34867C12.2942 5.31579 12.2895 5.28223 12.286 5.2488C12.2826 5.21523 12.2812 5.18167 12.2812 5.14817C12.2812 5.11468 12.2826 5.08043 12.286 5.047C12.2895 5.01419 12.2942 4.98056 12.3011 4.94781C12.3079 4.91493 12.3161 4.88212 12.3257 4.84999C12.3353 4.81854 12.3469 4.78628 12.3599 4.75552C12.3722 4.72482 12.3865 4.69399 12.4022 4.6646C12.418 4.63514 12.4357 4.60636 12.4542 4.57833C12.4727 4.5503 12.4925 4.52303 12.5137 4.49698C12.535 4.47094 12.5576 4.44564 12.5815 4.4224C12.6054 4.39841 12.6301 4.37585 12.6567 4.35466C12.6821 4.33333 12.7095 4.31351 12.7375 4.29443C12.7655 4.27591 12.7943 4.25882 12.8237 4.24316C12.8531 4.22744 12.8839 4.21309 12.9147 4.20078C12.9454 4.18779 12.9776 4.17617 13.0091 4.1666C13.0412 4.15703 13.0741 4.1489 13.1069 4.14199C13.1397 4.13516 13.1733 4.13037 13.2061 4.12695C13.2731 4.12012 13.3408 4.12012 13.4079 4.12695C13.4414 4.13037 13.4749 4.13516 13.5078 4.14199C13.5406 4.14883 13.5734 4.15696 13.6049 4.1666C13.637 4.17617 13.6685 4.18779 13.6993 4.20078C13.7307 4.21309 13.7609 4.22744 13.7903 4.24316C13.8197 4.25882 13.8491 4.27591 13.8765 4.29443C13.9045 4.31357 13.9319 4.3334 13.9579 4.35466C13.9839 4.37585 14.0092 4.39841 14.0325 4.4224C14.0565 4.44571 14.079 4.47107 14.1002 4.49698C14.1215 4.52289 14.142 4.5503 14.1604 4.57833C14.1789 4.60636 14.196 4.63514 14.2117 4.6646C14.2274 4.69399 14.2418 4.72482 14.2548 4.75552C14.2678 4.78628 14.2787 4.81779 14.2883 4.84999C14.2985 4.88212 14.3067 4.915 14.3129 4.94781ZM13.7436 14.7815C13.5432 14.3895 13.2938 14.0845 12.9955 13.8672C12.6969 13.6497 12.3708 13.4496 12.0171 13.2661C11.6633 13.0828 11.3371 12.9336 11.0388 12.8185C10.7403 12.7033 10.4909 12.5649 10.2907 12.4028C10.0903 12.241 9.99011 12.062 9.99011 11.8657C9.99011 11.6527 10.0966 11.4714 10.3098 11.3222C10.5228 11.1732 10.8426 11.0985 11.2689 11.0985C11.6696 11.0985 12.0362 11.1797 12.3688 11.3415C12.7013 11.5036 12.9187 11.5844 13.021 11.5844C13.2681 11.5844 13.4622 11.4632 13.6029 11.2206C13.7436 10.9779 13.8139 10.7442 13.8139 10.5187C13.8139 10.2818 13.718 10.0797 13.5261 9.9127C13.3343 9.74584 13.0869 9.62512 12.7844 9.55033C12.4817 9.47562 12.2089 9.4251 11.9659 9.39864C11.723 9.37226 11.4905 9.35913 11.2689 9.35913C10.3651 9.35913 9.59363 9.58287 8.95419 10.0306C8.31476 10.4781 7.99511 11.1538 7.99511 12.0575C7.99511 12.6119 8.13354 13.0893 8.41074 13.4899C8.68773 13.8907 9.02659 14.1997 9.42745 14.4171C9.8281 14.6345 10.2268 14.8308 10.6232 15.0054C11.0197 15.1803 11.3563 15.3743 11.6335 15.5874C11.9105 15.8006 12.0492 16.0477 12.0492 16.3291C12.0492 16.6106 11.9254 16.8214 11.6782 16.962C11.4309 17.1027 11.1411 17.173 10.8086 17.173C10.5442 17.173 10.2927 17.1214 10.0542 17.018C9.81539 16.9146 9.62993 16.8001 9.49786 16.6743C9.36558 16.5486 9.22066 16.4341 9.06309 16.3307C8.90518 16.2273 8.76252 16.1756 8.63468 16.1756C8.40452 16.1756 8.2019 16.2951 8.02724 16.5337C7.85238 16.7724 7.76501 17.0112 7.76501 17.2499C7.76501 17.6762 8.07195 18.06 8.68581 18.4008C9.29968 18.7419 10.0201 18.9124 10.8471 18.9124C11.8019 18.9124 12.5736 18.6676 13.1619 18.1778C13.7502 17.6881 14.0444 17.0037 14.0444 16.1245C14.0441 15.6214 13.9438 15.1738 13.7436 14.7815ZM19.8116 13.8672C20.11 14.0845 20.3593 14.3895 20.5598 14.7815C20.76 15.1738 20.8603 15.6214 20.8604 16.1245C20.8604 17.0037 20.5663 17.6881 19.978 18.1778C19.3897 18.6676 18.618 18.9124 17.6632 18.9124C16.8362 18.9124 16.1158 18.7419 15.502 18.4008C14.8881 18.06 14.5812 17.6762 14.5812 17.2499C14.5812 17.0112 14.6685 16.7724 14.8434 16.5337C15.0181 16.2951 15.2207 16.1756 15.4508 16.1756C15.5787 16.1756 15.7213 16.2273 15.8793 16.3307C16.0368 16.4341 16.1817 16.5486 16.314 16.6743C16.4461 16.8001 16.6315 16.9146 16.8703 17.018C17.1089 17.1214 17.3604 17.173 17.6248 17.173C17.9573 17.173 18.2471 17.1027 18.4944 16.962C18.7417 16.8214 18.8652 16.6106 18.8652 16.3291C18.8652 16.0477 18.7266 15.8006 18.4496 15.5874C18.1724 15.3743 17.8357 15.1803 17.4392 15.0054C17.0428 14.8308 16.6441 14.6345 16.2435 14.4171C15.8426 14.1997 15.5038 13.8907 15.2268 13.4899C14.9496 13.0893 14.8111 12.6119 14.8111 12.0575C14.8111 11.1538 15.1308 10.4781 15.7702 10.0306C16.4097 9.58287 17.1812 9.35913 18.0849 9.35913C18.3065 9.35913 18.5389 9.37226 18.7819 9.39864C19.0249 9.4251 19.2976 9.47562 19.6004 9.55033C19.903 9.62512 20.1503 9.74584 20.3422 9.9127C20.534 10.0797 20.6299 10.2818 20.6299 10.5187C20.6299 10.7442 20.5595 10.9779 20.4189 11.2206C20.2782 11.4632 20.0841 11.5844 19.837 11.5844C19.7347 11.5844 19.5173 11.5036 19.1848 11.3415C18.8523 11.1797 18.4856 11.0985 18.0849 11.0985C17.6586 11.0985 17.3389 11.1732 17.1259 11.3222C16.9126 11.4714 16.8061 11.6527 16.8061 11.8657C16.8061 12.062 16.9063 12.241 17.1067 12.4028C17.3069 12.5649 17.5563 12.7033 17.8548 12.8185C18.1532 12.9336 18.4794 13.0828 18.8333 13.2661C19.187 13.4496 19.5131 13.6497 19.8116 13.8672ZM27.1779 17.3011C27.0756 17.1306 26.9349 17.0454 26.7558 17.0454H23.84V10.0371C23.84 9.84106 23.7419 9.69177 23.5459 9.5895C23.3497 9.48717 23.1153 9.43604 22.8425 9.43604C22.5695 9.43604 22.3352 9.48717 22.1391 9.5895C21.9429 9.69177 21.845 9.84106 21.845 10.0371V18.1707C21.845 18.3669 21.9301 18.5182 22.1007 18.6247C22.2711 18.7314 22.4758 18.7846 22.7146 18.7846H26.7558C26.9349 18.7846 27.0756 18.6995 27.1778 18.5289C27.2802 18.3584 27.3313 18.1538 27.3313 17.915C27.3314 17.6763 27.2802 17.4717 27.1779 17.3011ZM8.4543 21.1226H26.5139C27.0805 21.1226 27.5398 21.5819 27.5398 22.1486C27.5398 22.7153 27.0804 23.1747 26.5138 23.1747H8.4543C7.8876 23.1747 7.42822 22.7153 7.42822 22.1486C7.42822 21.5819 7.88767 21.1226 8.4543 21.1226Z" fill="#60BDCA"/>
</svg>
