<svg width="56" height="18" viewBox="0 0 56 18" fill="none"
    xmlns="http://www.w3.org/2000/svg">
    <path d="M52.2339 0.245605H48.7135C47.6491 0.245605 46.8304 0.573091 46.3392 1.63742L39.6257 16.9474H44.3743C44.3743 16.9474 45.193 14.9006 45.3567 14.4093C45.848 14.4093 50.5146 14.4093 51.1696 14.4093C51.3333 14.9824 51.7427 16.8655 51.7427 16.8655H56L52.2339 0.245605ZM46.6667 10.9708C47.076 9.9883 48.4678 6.30408 48.4678 6.30408C48.4678 6.38596 48.8772 5.32163 49.0409 4.74853L49.3684 6.22221C49.3684 6.22221 50.269 10.2339 50.4327 11.0526H46.6667V10.9708Z" fill="#3362AB"/>
    <path d="M39.9533 11.462C39.9533 14.9006 36.8422 17.193 32.0118 17.193C29.965 17.193 28.0001 16.7836 26.9358 16.2924L27.5908 12.5263L28.1639 12.7719C29.6375 13.4269 30.62 13.6725 32.4212 13.6725C33.7311 13.6725 35.1229 13.1813 35.1229 12.0351C35.1229 11.2982 34.5498 10.807 32.7487 9.9883C31.0294 9.16959 28.737 7.85965 28.737 5.48538C28.737 2.21053 31.9299 0 36.4329 0C38.1522 0 39.6258 0.327485 40.5264 0.736842L39.8715 4.33918L39.544 4.0117C38.7253 3.68421 37.6609 3.35672 36.1054 3.35672C34.3861 3.4386 33.5674 4.17544 33.5674 4.83041C33.5674 5.56725 34.5498 6.14035 36.1054 6.87719C38.7253 8.10526 39.9533 9.49708 39.9533 11.462Z" fill="#3362AB"/>
    <path d="M0 0.409273L0.0818713 0.0817871H7.12281C8.10526 0.0817871 8.8421 0.409272 9.08772 1.4736L10.6433 8.84202C9.08772 4.9122 5.48538 1.71921 0 0.409273Z" fill="#F9B50B"/>
    <path d="M20.5497 0.24569L13.4269 16.8656H8.5965L4.50293 2.94744C7.4503 4.83048 9.90644 7.77785 10.807 9.82464L11.2983 11.5439L15.7193 0.163818H20.5497V0.24569Z" fill="#3362AB"/>
    <path d="M22.4328 0.163818H26.9357L24.0702 16.8656H19.5673L22.4328 0.163818Z" fill="#3362AB"/>
</svg>
