<svg width="44" height="44" viewBox="0 0 44 44" fill="none"
    xmlns="http://www.w3.org/2000/svg">
    <circle cx="22" cy="22" r="22" fill="#F0F4FA"/>
    <path fill-rule="evenodd" clip-rule="evenodd" d="M31.4952 15.869C31.6482 15.3681 31.4952 15 30.7673 15H28.3605C27.7485 15 27.4664 15.318 27.3134 15.6685C27.3134 15.6685 26.0895 18.5989 24.3556 20.5023C23.7946 21.0533 23.5397 21.2287 23.2335 21.2287C23.0807 21.2287 22.8593 21.0533 22.8593 20.5524V15.869C22.8593 15.2678 22.6815 15 22.1716 15H18.3895C18.0071 15 17.7771 15.279 17.7771 15.5434C17.7771 16.1133 18.6439 16.2447 18.7333 17.8475V21.3287C18.7333 22.0921 18.593 22.2304 18.287 22.2304C17.4711 22.2304 15.4863 19.2872 14.3092 15.9191C14.0785 15.2644 13.8471 15 13.232 15H10.8252C10.1375 15 10 15.318 10 15.6685C10 16.2946 10.8159 19.4003 13.7992 23.5078C15.788 26.3128 18.5903 27.8333 21.1401 27.8333C22.67 27.8333 22.8593 27.4956 22.8593 26.9139V24.7939C22.8593 24.1184 23.0042 23.9837 23.4886 23.9837C23.8455 23.9837 24.4575 24.1589 25.8855 25.5113C27.5173 27.1142 27.7865 27.8333 28.7044 27.8333H31.1112C31.7988 27.8333 32.1427 27.4956 31.9443 26.8291C31.7273 26.1648 30.948 25.2011 29.9143 24.0586C29.3533 23.4075 28.5118 22.7064 28.2569 22.3557C27.8998 21.905 28.0019 21.7044 28.2569 21.3037C28.2569 21.3037 31.1892 17.2465 31.4952 15.869Z" fill="#5488C7"/>
</svg>
