<svg width="44" height="44" viewBox="0 0 44 44" fill="none"
    xmlns="http://www.w3.org/2000/svg">
    <circle cx="22" cy="22" r="22" fill="#F0F4FA"/>
    <path fill-rule="evenodd" clip-rule="evenodd" d="M30.5875 14.4923C31.5375 14.7718 32.2875 15.5702 32.5375 16.5815C33 18.4177 33 22.25 33 22.25C33 22.25 33 26.0823 32.55 27.9186C32.2875 28.9431 31.55 29.7415 30.6 30.0077C28.875 30.5 22 30.5 22 30.5C22 30.5 15.125 30.5 13.4125 30.0077C12.4625 29.7282 11.7125 28.9298 11.4625 27.9186C11 26.0823 11 22.25 11 22.25C11 22.25 11 18.4177 11.45 16.5815C11.7125 15.5569 12.45 14.7585 13.4 14.4923C15.125 14 22 14 22 14C22 14 28.875 14 30.5875 14.4923ZM25.4998 22.2505L19.7498 25.7367V18.7642L25.4998 22.2505Z" fill="#5488C7"/>
</svg>
